<svg width="40" height="41" viewBox="0 0 40 41" fill="none" xmlns="http://www.w3.org/2000/svg">
<path d="M20 0.5C8.95427 0.5 0 9.45427 0 20.5C0 31.5457 8.95427 40.5 20 40.5C31.0457 40.5 40 31.5457 40 20.5C40 9.45427 31.0457 0.5 20 0.5ZM29.2703 14.1016C28.9694 17.2641 27.667 24.9385 27.0042 28.4806C26.7239 29.9794 26.1718 30.4819 25.6374 30.531C24.4761 30.638 23.594 29.7635 22.4691 29.0261C20.7089 27.8723 19.7144 27.154 18.0057 26.028C16.0311 24.7268 17.3112 24.0119 18.4365 22.8425C18.731 22.5366 23.8484 17.882 23.9474 17.4598C23.9598 17.4069 23.9716 17.2098 23.8544 17.1062C23.7371 17.0027 23.5648 17.0377 23.4402 17.0659C23.2637 17.106 20.4517 18.9646 15.0041 22.6419C14.206 23.1899 13.483 23.457 12.8352 23.443C12.1211 23.4276 10.7475 23.0393 9.72629 22.7073C8.47379 22.3002 7.47831 22.0849 7.565 21.3935C7.61016 21.0333 8.10613 20.665 9.0529 20.2886C14.8833 17.7484 18.7712 16.0737 20.7165 15.2644C26.2706 12.9542 27.4248 12.5529 28.177 12.5395C28.3425 12.5368 28.7124 12.5777 28.952 12.7722C29.1114 12.9107 29.213 13.104 29.2367 13.3138C29.2773 13.5743 29.2886 13.8386 29.2703 14.1016V14.1016Z" fill="white"/>
</svg>
