<svg width="40" height="33" viewBox="0 0 40 33" fill="none" xmlns="http://www.w3.org/2000/svg">
<path d="M35.8884 8.35279C35.9138 8.7081 35.9138 9.06349 35.9138 9.4188C35.9138 20.2563 27.6651 32.7437 12.5889 32.7437C7.94417 32.7437 3.62947 31.3985 0 29.0636C0.659924 29.1397 1.29438 29.1651 1.9797 29.1651C5.81213 29.1651 9.34012 27.8707 12.1574 25.6625C8.55332 25.5864 5.53299 23.226 4.49236 19.9772C5.00002 20.0533 5.5076 20.1041 6.04065 20.1041C6.77667 20.1041 7.51276 20.0025 8.198 19.8249C4.44166 19.0635 1.6243 15.764 1.6243 11.7792V11.6777C2.71564 12.2869 3.98478 12.6676 5.32986 12.7183C3.12173 11.2462 1.67508 8.73349 1.67508 5.89082C1.67508 4.368 2.0811 2.97206 2.79181 1.75378C6.82737 6.7284 12.8934 9.97709 19.6954 10.3325C19.5685 9.72334 19.4923 9.08888 19.4923 8.45435C19.4923 3.93652 23.1472 0.256348 27.6903 0.256348C30.0507 0.256348 32.1827 1.2462 33.6802 2.84519C35.533 2.48987 37.3096 1.80456 38.8833 0.865491C38.2741 2.76909 36.9797 4.36808 35.2792 5.38324C36.929 5.20566 38.528 4.74871 40 4.11425C38.8834 5.73856 37.4874 7.1852 35.8884 8.35279Z" fill="white"/>
</svg>
