<svg width="150" height="31" viewBox="0 0 150 31" fill="none" xmlns="http://www.w3.org/2000/svg">
<path fill-rule="evenodd" clip-rule="evenodd" d="M17.6026 7.14914C17.6026 9.44199 15.7439 11.3007 13.4511 11.3007C11.1582 11.3007 9.29948 9.44199 9.29948 7.14914C9.29948 4.85628 11.1582 2.99756 13.4511 2.99756C15.7439 2.99756 17.6026 4.85628 17.6026 7.14914ZM17.6026 16.7808C17.6026 19.0736 15.7439 20.9323 13.4511 20.9323C11.1582 20.9323 9.29948 19.0736 9.29948 16.7808C9.29948 14.4879 11.1582 12.6292 13.4511 12.6292C15.7439 12.6292 17.6026 14.4879 17.6026 16.7808ZM4.15158 20.9323C6.44443 20.9323 8.30315 19.0736 8.30315 16.7808C8.30315 14.4879 6.44443 12.6292 4.15158 12.6292C1.85872 12.6292 0 14.4879 0 16.7808C0 19.0736 1.85872 20.9323 4.15158 20.9323ZM26.9023 16.7808C26.9023 19.0736 25.0436 20.9323 22.7507 20.9323C20.4578 20.9323 18.5991 19.0736 18.5991 16.7808C18.5991 14.4879 20.4578 12.6292 22.7507 12.6292C25.0436 12.6292 26.9023 14.4879 26.9023 16.7808ZM31.0539 30.564C33.3467 30.564 35.2054 28.7052 35.2054 26.4124C35.2054 24.1195 33.3467 22.2608 31.0539 22.2608C28.761 22.2608 26.9023 24.1195 26.9023 26.4124C26.9023 28.7052 28.761 30.564 31.0539 30.564ZM18.5991 7.14914C18.5991 4.85628 20.4578 2.99756 22.7507 2.99756H31.0539C33.3467 2.99756 35.2054 4.85628 35.2054 7.14914C35.2054 9.44199 33.3467 11.3007 31.0539 11.3007H22.7507C20.4578 11.3007 18.5991 9.44199 18.5991 7.14914ZM13.4511 22.2608C11.1582 22.2608 9.29948 24.1195 9.29948 26.4124C9.29948 28.7052 11.1582 30.564 13.4511 30.564H21.7542C24.0471 30.564 25.9058 28.7052 25.9058 26.4124C25.9058 24.1195 24.0471 22.2608 21.7542 22.2608H13.4511Z" fill="white"/>
<path d="M55.0359 26.3308C53.2055 26.3308 51.5846 25.9559 50.1732 25.2061C48.7838 24.4342 47.6922 23.3867 46.8983 22.0635C46.1264 20.7183 45.7405 19.1745 45.7405 17.4323C45.7405 16.065 45.961 14.819 46.4021 13.6943C46.8431 12.5696 47.4606 11.5993 48.2546 10.7833C49.0485 9.94529 49.9857 9.30575 51.0663 8.86469C52.169 8.40157 53.3599 8.17001 54.6389 8.17001C55.8078 8.17001 56.8773 8.39054 57.8477 8.83161C58.8401 9.27267 59.7001 9.87913 60.4279 10.651C61.1557 11.4008 61.707 12.305 62.0819 13.3635C62.4788 14.4 62.6663 15.5358 62.6442 16.7707L62.6112 18.2263H48.5192L47.7253 15.4145H59.204L58.7078 15.9768V15.216C58.6416 14.5544 58.4211 13.97 58.0462 13.4628C57.6713 12.9335 57.1861 12.5255 56.5907 12.2388C56.0173 11.9301 55.3777 11.7757 54.672 11.7757C53.5914 11.7757 52.6762 11.9852 51.9264 12.4042C51.1766 12.8012 50.6032 13.3966 50.2063 14.1905C49.8314 14.9844 49.6439 15.9658 49.6439 17.1346C49.6439 18.2593 49.8755 19.2407 50.3386 20.0787C50.8237 20.9167 51.5074 21.5673 52.3895 22.0304C53.2716 22.4935 54.2971 22.7251 55.4659 22.7251C56.2819 22.7251 57.0317 22.5928 57.7154 22.3281C58.4211 22.0635 59.1709 21.5894 59.9648 20.9057L61.9496 23.6844C61.3541 24.2357 60.6705 24.7099 59.8986 25.1068C59.1488 25.4818 58.3549 25.7795 57.5169 26C56.6789 26.2205 55.8519 26.3308 55.0359 26.3308ZM64.0315 26V8.56697H68.0011L68.0673 12.1065L67.4057 12.3711C67.6041 11.7978 67.9019 11.2685 68.2988 10.7833C68.6958 10.2761 69.1699 9.83503 69.7212 9.46012C70.2726 9.08522 70.857 8.79853 71.4745 8.60005C72.092 8.37952 72.7315 8.26925 73.3931 8.26925C74.3414 8.26925 75.1794 8.42362 75.9072 8.73237C76.6349 9.04111 77.2414 9.51526 77.7265 10.1548C78.2338 10.7943 78.6197 11.6103 78.8843 12.6027L78.2558 12.4704L78.4874 11.9411C78.752 11.4118 79.1049 10.9267 79.5459 10.4856C79.987 10.0445 80.4832 9.6586 81.0345 9.3278C81.5858 8.97495 82.1592 8.71031 82.7547 8.53389C83.3722 8.35746 83.9676 8.26925 84.541 8.26925C85.8642 8.26925 86.9668 8.53389 87.8489 9.06317C88.7311 9.59244 89.3927 10.3974 89.8337 11.478C90.2748 12.5586 90.4953 13.8928 90.4953 15.4806V26H86.4265V15.7453C86.4265 14.4221 86.1619 13.4407 85.6326 12.8012C85.1254 12.1616 84.3315 11.8419 83.2509 11.8419C82.6775 11.8419 82.1482 11.9411 81.663 12.1396C81.1779 12.316 80.7478 12.5806 80.3729 12.9335C80.0201 13.2643 79.7444 13.6613 79.5459 14.1244C79.3475 14.5654 79.2482 15.0616 79.2482 15.613V26H75.1794V15.7122C75.1794 14.4552 74.9037 13.4959 74.3524 12.8343C73.8231 12.1727 73.0623 11.8419 72.0699 11.8419C71.4965 11.8419 70.9672 11.9411 70.4821 12.1396C70.019 12.316 69.6 12.5806 69.225 12.9335C68.8722 13.2643 68.5965 13.6502 68.3981 14.0913C68.1996 14.5324 68.1003 15.0175 68.1003 15.5468V26H64.0315ZM102.456 26.3308C101.684 26.3308 100.934 26.2205 100.207 26C99.4788 25.7574 98.8062 25.4376 98.1887 25.0407C97.5933 24.6437 97.0971 24.2027 96.7001 23.7175C96.3032 23.2103 96.0385 22.7031 95.9062 22.1958L96.8655 21.7658L96.7663 25.9008H92.8629V1.52098H96.8986V12.5696L96.2039 12.2719C96.3142 11.7426 96.5568 11.2464 96.9317 10.7833C97.3066 10.2981 97.7807 9.86811 98.3541 9.4932C98.9275 9.09625 99.556 8.7875 100.24 8.56697C100.923 8.32438 101.629 8.20309 102.357 8.20309C103.9 8.20309 105.268 8.60005 106.459 9.39396C107.672 10.1658 108.62 11.2354 109.303 12.6027C110.009 13.9479 110.362 15.5027 110.362 17.2669C110.362 19.0091 110.02 20.5639 109.337 21.9312C108.653 23.2985 107.705 24.3791 106.492 25.173C105.301 25.9449 103.956 26.3308 102.456 26.3308ZM101.629 22.7582C102.555 22.7582 103.382 22.5266 104.11 22.0635C104.838 21.5783 105.411 20.9278 105.83 20.1118C106.249 19.2738 106.459 18.3255 106.459 17.2669C106.459 16.1863 106.249 15.2381 105.83 14.4221C105.433 13.5841 104.871 12.9335 104.143 12.4704C103.415 12.0073 102.577 11.7757 101.629 11.7757C100.659 11.7757 99.8096 12.0073 99.0819 12.4704C98.3541 12.9335 97.7807 13.5841 97.3617 14.4221C96.9427 15.2381 96.7332 16.1863 96.7332 17.2669C96.7332 18.3255 96.9427 19.2738 97.3617 20.1118C97.7807 20.9278 98.3541 21.5783 99.0819 22.0635C99.8096 22.5266 100.659 22.7582 101.629 22.7582ZM121.003 26.3308C119.172 26.3308 117.552 25.9559 116.14 25.2061C114.751 24.4342 113.659 23.3867 112.865 22.0635C112.093 20.7183 111.707 19.1745 111.707 17.4323C111.707 16.065 111.928 14.819 112.369 13.6943C112.81 12.5696 113.428 11.5993 114.222 10.7833C115.015 9.94529 115.953 9.30575 117.033 8.86469C118.136 8.40157 119.327 8.17001 120.606 8.17001C121.775 8.17001 122.844 8.39054 123.815 8.83161C124.807 9.27267 125.667 9.87913 126.395 10.651C127.123 11.4008 127.674 12.305 128.049 13.3635C128.446 14.4 128.633 15.5358 128.611 16.7707L128.578 18.2263H114.486L113.692 15.4145H125.171L124.675 15.9768V15.216C124.609 14.5544 124.388 13.97 124.013 13.4628C123.638 12.9335 123.153 12.5255 122.558 12.2388C121.984 11.9301 121.345 11.7757 120.639 11.7757C119.558 11.7757 118.643 11.9852 117.893 12.4042C117.144 12.8012 116.57 13.3966 116.173 14.1905C115.798 14.9844 115.611 15.9658 115.611 17.1346C115.611 18.2593 115.842 19.2407 116.306 20.0787C116.791 20.9167 117.474 21.5673 118.356 22.0304C119.239 22.4935 120.264 22.7251 121.433 22.7251C122.249 22.7251 122.999 22.5928 123.682 22.3281C124.388 22.0635 125.138 21.5894 125.932 20.9057L127.917 23.6844C127.321 24.2357 126.637 24.7099 125.866 25.1068C125.116 25.4818 124.322 25.7795 123.484 26C122.646 26.2205 121.819 26.3308 121.003 26.3308ZM138.103 26.3308C136.537 26.3308 135.137 25.9449 133.902 25.173C132.689 24.3791 131.719 23.3095 130.991 21.9643C130.285 20.597 129.932 19.0312 129.932 17.2669C129.932 15.5247 130.285 13.97 130.991 12.6027C131.697 11.2354 132.656 10.1658 133.869 9.39396C135.104 8.60005 136.493 8.20309 138.037 8.20309C138.875 8.20309 139.68 8.33541 140.452 8.60005C141.246 8.86469 141.951 9.22856 142.569 9.69168C143.208 10.1327 143.705 10.6289 144.057 11.1803C144.432 11.7316 144.631 12.305 144.653 12.9004L143.561 13.0327V1.52098H147.63V26H143.694L143.594 21.9312L144.388 21.9973C144.366 22.5266 144.179 23.0449 143.826 23.5521C143.473 24.0593 142.999 24.5224 142.403 24.9414C141.83 25.3605 141.168 25.7023 140.419 25.9669C139.669 26.2095 138.897 26.3308 138.103 26.3308ZM138.864 22.8905C139.812 22.8905 140.65 22.6589 141.378 22.1958C142.106 21.7107 142.668 21.0491 143.065 20.211C143.484 19.351 143.694 18.3696 143.694 17.2669C143.694 16.1643 143.484 15.1939 143.065 14.3559C142.668 13.5179 142.106 12.8563 141.378 12.3711C140.65 11.886 139.812 11.6434 138.864 11.6434C137.894 11.6434 137.044 11.886 136.317 12.3711C135.611 12.8563 135.049 13.5179 134.63 14.3559C134.211 15.1939 134.001 16.1643 134.001 17.2669C134.001 18.3696 134.211 19.351 134.63 20.211C135.049 21.0491 135.611 21.7107 136.317 22.1958C137.044 22.6589 137.894 22.8905 138.864 22.8905Z" fill="white"/>
</svg>
