<svg width="54" height="35" viewBox="0 0 54 35" fill="none" xmlns="http://www.w3.org/2000/svg">
<path d="M53.8352 24.6823C53.4977 23.862 52.695 23.2513 51.8102 23.2513H47.4319V10.2083C47.4319 6.1888 44.1573 2.91667 40.1347 2.91667H28.4592C26.8474 2.91667 25.5403 4.22096 25.5403 5.83333C25.5403 7.4457 26.8474 8.75 28.4592 8.75H40.1347C40.9374 8.75 41.5941 9.40625 41.5941 10.2083V23.2513H37.2158C36.3308 23.2513 35.5329 23.784 35.1936 24.6021C34.8543 25.4202 35.0425 26.3603 35.6682 26.9865L42.9654 34.2799C43.3911 34.7904 43.9566 35 44.513 35C45.0694 35 45.6331 34.7864 46.0609 34.3592L53.3582 27.0657C53.9812 26.4414 54.1727 25.5026 53.8352 24.6823ZM25.5403 26.25H13.8648C13.0621 26.25 12.4053 25.5938 12.4053 24.7917V11.6667H16.7836C17.6687 11.6667 18.4666 11.134 18.8059 10.3159C19.1452 9.49776 18.9569 8.55768 18.3313 7.93151L11.0341 0.638021C10.6084 0.213281 10.0429 0 9.48644 0C8.93003 0 8.3645 0.213281 7.93578 0.640755L0.638579 7.93425C0.0155798 8.55859 -0.172323 9.4974 0.166997 10.3177C0.506317 11.138 1.30445 11.6667 2.18923 11.6667H6.56756V24.7917C6.56756 28.8112 9.84218 32.0833 13.8648 32.0833H25.5403C27.1521 32.0833 28.4592 30.779 28.4592 29.1667C28.4592 27.5543 27.1548 26.25 25.5403 26.25Z" fill="url(#paint0_linear_1849_84)"/>
<defs>
<linearGradient id="paint0_linear_1849_84" x1="53.6132" y1="0" x2="2.96197" y2="0" gradientUnits="userSpaceOnUse">
<stop stop-color="#16BBFD"/>
<stop offset="1" stop-color="#F059FC"/>
</linearGradient>
</defs>
</svg>
